:FULLY-SPECIFIED
:FORCE-ALL-JOINTS-BE-3DOF
:DEGREES
1019
root 1.1473 15.1608 32.4385 4.84389 -3.42944 3.57336
lfemur 8.42341 0.461017 5.72745
ltibia 1.43125e-014 -0 0
lfoot -30.131 -11.0189 -6.36367e-006
ltoes -34.3843 0 0
rfemur -31.5579 -15.9288 -6.02752
rtibia 50.1724 -0 0
rfoot -22.4104 4.64359 0.00028396
rtoes -42.6559 0 0
lowerback -1.41183 -0.16019 0.303461
upperback -0.522525 -0.202172 -5.92487
thorax 0.232021 -0.108177 -6.31765
lowerneck -7.21823 0.921915 6.20654
upperneck 1.63191 0.543483 3.50873
head 1.74728 0.406361 0.0721631
lclavicle 9.93923e-017 -7.95139e-015 0
lhumerus -58.6408 -46.4616 115.3
lradius 55.7117 -0 0
lwrist 25.2298 0 0
lhand 37.2345 24.8673 4.00324e-005
lfingers 7.12502 -0 0
lthumb 60.0658 38.5782 2.83395e-005
rclavicle 9.93923e-017 -7.95139e-015 0
rhumerus 2.78638 -23.8809 0.221392
rradius 27.6583 -0 0
rwrist -10.3219 0 0
rhand -30.7436 -42.9535 0.000125622
rfingers 7.12502 -0 0
rthumb -4.03559 -72.8952 0.000120801
1020
root 1.14764 15.1606 32.4408 4.84298 -3.41979 3.56109
lfemur 8.43046 0.452394 5.74012
ltibia 1.43125e-014 -0 0
lfoot -30.1349 -11.0127 -5.93943e-006
ltoes -34.3958 0 0
rfemur -31.5482 -15.9301 -6.02195
rtibia 50.18 -0 0
rfoot -22.3847 4.68581 0.00026503
rtoes -42.5905 0 0
lowerback -1.42297 -0.153398 0.286206
upperback -0.523232 -0.192493 -5.93169
thorax 0.238674 -0.103193 -6.31488
lowerneck -7.21778 0.915974 6.22977
upperneck 1.64487 0.532802 3.51135
head 1.75143 0.401733 0.0687109
lclavicle 9.93923e-017 -7.95139e-015 0
lhumerus -58.6486 -46.4754 115.302
lradius 55.7235 -0 0
lwrist 25.2374 0 0
lhand 37.2398 24.8958 3.73636e-005
lfingers 7.12502 -0 0
lthumb 60.0704 38.6019 2.64502e-005
rclavicle 9.93923e-017 -7.95139e-015 0
rhumerus 2.77276 -23.8715 0.228737
rradius 27.6519 -0 0
rwrist -10.287 0 0
rhand -30.7338 -42.9047 0.000117247
rfingers 7.12502 -0 0
rthumb -4.0261 -72.8465 0.000112748
1021
root 1.14798 15.1604 32.4431 4.84207 -3.41015 3.54882
lfemur 8.4375 0.443769 5.75278
ltibia 1.43125e-014 -0 0
lfoot -30.1388 -11.0065 -5.09094e-006
ltoes -34.4073 0 0
rfemur -31.5385 -15.9313 -6.01638
rtibia 50.1876 -0 0
rfoot -22.359 4.72803 0.000227168
rtoes -42.5252 0 0
lowerback -1.43411 -0.146608 0.268949
upperback -0.523941 -0.182814 -5.93851
thorax 0.245327 -0.0982094 -6.3121
lowerneck -7.21734 0.910033 6.25301
upperneck 1.65783 0.52212 3.51396
head 1.75557 0.397105 0.0652583
lclavicle 9.93923e-017 -7.95139e-015 0
lhumerus -58.6565 -46.4893 115.304
lradius 55.7353 -0 0
lwrist 25.2451 0 0
lhand 37.2452 24.9243 3.20259e-005
lfingers 7.12502 -0 0
lthumb 60.075 38.6256 2.26716e-005
rclavicle 9.93923e-017 -7.95139e-015 0
rhumerus 2.75915 -23.8622 0.236079
rradius 27.6455 -0 0
rwrist -10.2522 0 0
rhand -30.724 -42.8559 0.000100497
rfingers 7.12502 -0 0
rthumb -4.01661 -72.7979 9.66411e-005
1022
root 1.14832 15.1601 32.4454 4.84115 -3.40051 3.53655
lfemur 8.44455 0.435142 5.76545
ltibia 1.43125e-014 -0 0
lfoot -30.1427 -11.0002 -3.8182e-006
ltoes -34.4188 0 0
rfemur -31.5288 -15.9326 -6.01081
rtibia 50.1952 -0 0
rfoot -22.3333 4.77025 0.000170376
rtoes -42.4599 0 0
lowerback -1.44525 -0.139823 0.251691
upperback -0.52465 -0.173135 -5.94534
thorax 0.251979 -0.0932261 -6.30932
lowerneck -7.2169 0.904091 6.27625
upperneck 1.67079 0.511437 3.51657
head 1.75972 0.392477 0.0618055
lclavicle 9.93923e-017 -7.95139e-015 0
lhumerus -58.6643 -46.5031 115.306
lradius 55.7471 -0 0
lwrist 25.2527 0 0
lhand 37.2506 24.9528 2.40194e-005
lfingers 7.12502 -0 0
lthumb 60.0796 38.6493 1.70037e-005
rclavicle 9.93923e-017 -7.95139e-015 0
rhumerus 2.74554 -23.8528 0.243418
rradius 27.6392 -0 0
rwrist -10.2173 0 0
rhand -30.7142 -42.8071 7.5373e-005
rfingers 7.12502 -0 0
rthumb -4.00712 -72.7493 7.24808e-005
1023
root 1.14867 15.1599 32.4477 4.84024 -3.39087 3.52427
lfemur 8.4516 0.426514 5.77811
ltibia 1.43125e-014 -0 0
lfoot -30.1466 -10.994 -2.12122e-006
ltoes -34.4303 0 0
rfemur -31.5192 -15.9339 -6.00525
rtibia 50.2028 -0 0
rfoot -22.3076 4.81247 9.46534e-005
rtoes -42.3945 0 0
lowerback -1.45639 -0.13304 0.234432
upperback -0.525361 -0.163456 -5.95216
thorax 0.258633 -0.0882432 -6.30655
lowerneck -7.21646 0.89815 6.29949
upperneck 1.68375 0.500754 3.51918
head 1.76387 0.387849 0.0583522
lclavicle 9.93923e-017 -7.95139e-015 0
lhumerus -58.6722 -46.517 115.307
lradius 55.7589 -0 0
lwrist 25.2604 0 0
lhand 37.2559 24.9813 1.33441e-005
lfingers 7.12502 -0 0
lthumb 60.0841 38.6729 9.4465e-006
rclavicle 9.93923e-017 -7.95139e-015 0
rhumerus 2.73193 -23.8434 0.250755
rradius 27.6328 -0 0
rwrist -10.1825 0 0
rhand -30.7043 -42.7582 4.18739e-005
rfingers 7.12502 -0 0
rthumb -3.99764 -72.7006 4.02671e-005
1024
root 1.14901 15.1597 32.45 4.83932 -3.38123 363.512
lfemur 8.45864 0.417884 5.79077
ltibia 1.43125e-014 0 0
lfoot -30.1505 -10.9878 0
ltoes -34.4418 0 0
rfemur -31.5095 -15.9352 -5.99968
rtibia 50.2104 0 0
rfoot -22.2819 4.85469 0
rtoes -42.3292 0 0
lowerback -1.46754 -0.126261 0.217172
upperback -0.526073 -0.153777 -5.95898
thorax 0.265286 -0.0832606 -6.30377
lowerneck -7.21602 0.892208 6.32273
upperneck 1.69671 0.49007 3.52178
head 1.76802 0.383222 0.0548987
lclavicle 9.93923e-017 -7.95139e-015 0
lhumerus -58.68 -46.5308 115.309
lradius 55.7707 0 0
lwrist 25.268 0 0
lhand 37.2613 25.0098 0
lfingers 7.12502 0 0
lthumb 60.0887 38.6966 0
rclavicle 9.93923e-017 -7.95139e-015 0
rhumerus 2.71832 -23.834 0.258088
rradius 27.6264 0 0
rwrist -10.1476 0 0
rhand -30.6945 -42.7094 0
rfingers 7.12502 0 0
rthumb -3.98815 -792.652 0
1025
root 1.15097 15.1595 32.4533 4.84002 -3.38607 3.51336
lfemur 8.47239 0.422509 5.78392
ltibia -1.11319e-014 0 0
lfoot -30.1588 -11.0003 9.03051e-006
ltoes -34.4291 0 0
rfemur -31.5032 -15.9621 -6.01208
rtibia 50.21 -0 0
rfoot -22.2629 4.94322 0.00014679
rtoes -42.2377 0 0
lowerback -1.48275 -0.122265 0.197501
upperback -0.523125 -0.147485 -5.96534
thorax 0.277592 -0.0798577 -6.29917
lowerneck -7.20318 0.889992 6.33468
upperneck 1.67766 0.488037 3.52369
head 1.7595 0.381533 0.0533575
lclavicle 2.28602e-015 3.18055e-015 0
lhumerus -58.6818 -46.5523 115.313
lradius 55.772 -0 0
lwrist 25.2854 0 0
lhand 37.2686 25.0213 7.30533e-006
lfingers 7.12502 -0 0
lthumb 60.0949 38.7015 2.648e-006
rclavicle 2.28602e-015 3.18055e-015 0
rhumerus 2.713 -23.8345 0.266175
rradius 27.6126 -0 0
rwrist -10.1213 0 0
rhand -30.6857 -42.6876 1.67996e-005
rfingers 7.12502 -0 0
rthumb -3.9796 -72.6304 1.61384e-005
1026
root 1.15292 15.1593 32.4566 4.84072 -3.3909 3.51473
lfemur 8.48613 0.427136 5.77707
ltibia -1.11319e-014 0 0
lfoot -30.167 -11.0129 1.62549e-005
ltoes -34.4163 0 0
rfemur -31.4968 -15.989 -6.02448
rtibia 50.2097 -0 0
rfoot -22.2439 5.03175 0.000264223
rtoes -42.1463 0 0
lowerback -1.49797 -0.118275 0.177829
upperback -0.520178 -0.141192 -5.9717
thorax 0.289899 -0.0764558 -6.29457
lowerneck -7.19034 0.887772 6.34662
upperneck 1.6586 0.486005 3.5256
head 1.75097 0.379843 0.0518165
lclavicle 2.28602e-015 3.18055e-015 0
lhumerus -58.6836 -46.5737 115.316
lradius 55.7733 -0 0
lwrist 25.3027 0 0
lhand 37.2759 25.0328 1.31496e-005
lfingers 7.12502 -0 0
lthumb 60.1012 38.7063 4.76639e-006
rclavicle 2.28602e-015 3.18055e-015 0
rhumerus 2.70767 -23.835 0.274263
rradius 27.5989 -0 0
rwrist -10.0949 0 0
rhand -30.6768 -42.6659 3.02393e-005
rfingers 7.12502 -0 0
rthumb -3.97106 -72.6087 2.9049e-005
1027
root 1.15488 15.1591 32.4599 4.84142 -3.39574 3.51609
lfemur 8.49987 0.431764 5.77022
ltibia -1.11319e-014 0 0
lfoot -30.1753 -11.0254 2.16732e-005
ltoes -34.4036 0 0
rfemur -31.4904 -16.0159 -6.03689
rtibia 50.2093 -0 0
rfoot -22.2249 5.12028 0.000352297
rtoes -42.0548 0 0
lowerback -1.51318 -0.11429 0.158155
upperback -0.517232 -0.134899 -5.97805
thorax 0.302206 -0.0730549 -6.28996
lowerneck -7.17751 0.885551 6.35856
upperneck 1.63955 0.483973 3.52751
head 1.74245 0.378153 0.0502758
lclavicle 2.28602e-015 3.18055e-015 0
lhumerus -58.6854 -46.5952 115.32
lradius 55.7747 -0 0
lwrist 25.3201 0 0
lhand 37.2832 25.0442 1.75328e-005
lfingers 7.12502 -0 0
lthumb 60.1074 38.7112 6.35519e-006
rclavicle 2.28602e-015 3.18055e-015 0
rhumerus 2.70235 -23.8355 0.282351
rradius 27.5851 -0 0
rwrist -10.0686 0 0
rhand -30.668 -42.6441 4.03191e-005
rfingers 7.12502 -0 0
rthumb -3.96251 -72.5871 3.87321e-005
1028
root 1.15684 15.1589 32.4632 4.84212 -3.40057 3.51745
lfemur 8.51362 0.436394 5.76338
ltibia -1.11319e-014 0 0
lfoot -30.1835 -11.0379 2.52854e-005
ltoes -34.3908 0 0
rfemur -31.4841 -16.0427 -6.0493
rtibia 50.209 -0 0
rfoot -22.2059 5.20881 0.000411014
rtoes -41.9633 0 0
lowerback -1.5284 -0.11031 0.138481
upperback -0.514286 -0.128606 -5.98441
thorax 0.314513 -0.069655 -6.28536
lowerneck -7.16467 0.883326 6.37051
upperneck 1.6205 0.481942 3.52943
head 1.73392 0.376463 0.0487353
lclavicle 2.28602e-015 3.18055e-015 0
lhumerus -58.6872 -46.6167 115.323
lradius 55.776 -0 0
lwrist 25.3374 0 0
lhand 37.2905 25.0557 2.04549e-005
lfingers 7.12502 -0 0
lthumb 60.1136 38.7161 7.41439e-006
rclavicle 2.28602e-015 3.18055e-015 0
rhumerus 2.69703 -23.836 0.290438
rradius 27.5713 -0 0
rwrist -10.0422 0 0
rhand -30.6591 -42.6223 4.70389e-005
rfingers 7.12502 -0 0
rthumb -3.95396 -72.5655 4.51874e-005
1029
root 1.1588 15.1587 32.4665 4.84282 -3.40541 3.51882
lfemur 8.52736 0.441026 5.75653
ltibia -1.11319e-014 0 0
lfoot -30.1918 -11.0505 2.70915e-005
ltoes -34.3781 0 0
rfemur -31.4777 -16.0696 -6.06172
rtibia 50.2086 -0 0
rfoot -22.1869 5.29734 0.000440372
rtoes -41.8718 0 0
lowerback -1.54362 -0.106335 0.118805
upperback -0.511341 -0.122312 -5.99077
thorax 0.326821 -0.066256 -6.28075
lowerneck -7.15183 0.881099 6.38245
upperneck 1.60144 0.479912 3.53134
head 1.7254 0.374772 0.0471951
lclavicle 2.28602e-015 3.18055e-015 0
lhumerus -58.689 -46.6382 115.327
lradius 55.7773 -0 0
lwrist 25.3548 0 0
lhand 37.2978 25.0672 2.1916e-005
lfingers 7.12502 -0 0
lthumb 60.1198 38.721 7.94399e-006
rclavicle 2.28602e-015 3.18055e-015 0
rhumerus 2.6917 -23.8365 0.298526
rradius 27.5575 -0 0
rwrist -10.0159 0 0
rhand -30.6503 -42.6006 5.03988e-005
rfingers 7.12502 -0 0
rthumb -3.94541 -72.5438 4.84151e-005
1030
root 1.16075 15.1585 32.4698 4.84352 -3.41024 3.52018
lfemur 8.5411 0.44566 5.74969
ltibia -1.11319e-014 0 0
lfoot -30.2 -11.063 2.70915e-005
ltoes -34.3653 0 0
rfemur -31.4713 -16.0965 -6.07414
rtibia 50.2083 -0 0
rfoot -22.1679 5.38588 0.000440372
rtoes -41.7804 0 0
lowerback -1.55883 -0.102366 0.0991289
upperback -0.508397 -0.116018 -5.99712
thorax 0.339128 -0.0628581 -6.27615
lowerneck -7.13899 0.878869 6.39439
upperneck 1.58239 0.477882 3.53325
head 1.71688 0.373082 0.0456551
lclavicle 2.28602e-015 3.18055e-015 0
lhumerus -58.6908 -46.6596 115.33
lradius 55.7786 -0 0
lwrist 25.3721 0 0
lhand 37.305 25.0787 2.1916e-005
lfingers 7.12502 -0 0
lthumb 60.1261 38.7258 7.94399e-006
rclavicle 2.28602e-015 3.18055e-015 0
rhumerus 2.68638 -23.837 0.306614
rradius 27.5438 -0 0
rwrist -9.98957 0 0
rhand -30.6414 -42.5788 5.03988e-005
rfingers 7.12502 -0 0
rthumb -3.93687 -72.5222 4.84151e-005
